<?xml version="1.0" standalone="no"?>
<!DOCTYPE svg PUBLIC "-//W3C//DTD SVG 20010904//EN"
 "http://www.w3.org/TR/2001/REC-SVG-20010904/DTD/svg10.dtd">
<svg version="1.0" xmlns="http://www.w3.org/2000/svg"
 width="260.000000pt" height="260.000000pt" viewBox="0 0 260.000000 260.000000"
 preserveAspectRatio="xMidYMid meet">
<metadata>
Created by potrace 1.11, written by Peter Selinger 2001-2013
</metadata>
<g transform="translate(0.000000,260.000000) scale(0.100000,-0.100000)"
fill="#000000" stroke="none">
<path d="M692 2269 c-151 -26 -297 -122 -428 -280 -67 -81 -171 -307 -190
-414 -27 -150 -32 -194 -29 -295 1 -64 10 -144 19 -180 9 -36 19 -74 21 -85 3
-11 9 -29 14 -40 6 -11 20 -42 32 -70 28 -64 94 -167 146 -227 33 -37 40 -53
38 -80 -7 -73 -18 -264 -18 -287 1 -36 23 -68 54 -82 16 -6 27 -15 24 -19 -2
-3 1 -23 7 -43 15 -47 50 -61 196 -73 31 -2 75 -7 97 -9 241 -27 1074 -26
1335 0 152 16 217 35 221 65 1 6 3 15 4 20 1 6 3 16 4 24 0 7 10 16 21 19 37
10 52 67 45 180 l-6 102 78 81 c176 183 246 388 197 578 -32 125 -86 185 -234
256 -49 25 -91 47 -91 50 -3 12 -7 72 -12 177 -9 185 -47 243 -181 273 -121
27 -229 37 -468 45 l-141 4 -37 38 c-154 156 -290 236 -455 268 -57 11 -210
14 -263 4z"/>
</g>
</svg>
